<?xml version="1.0" encoding="UTF-8" standalone="no"?>
<!-- Created with Inkscape (http://www.inkscape.org/) -->

<svg
   version="1.1"
   id="svg2"
   width="322.38"
   height="248.16266"
   viewBox="0 0 322.38001 248.16266"
   sodipodi:docname="data-transfer.svg"
   inkscape:version="1.2.2 (b0a8486541, 2022-12-01)"
   xmlns:inkscape="http://www.inkscape.org/namespaces/inkscape"
   xmlns:sodipodi="http://sodipodi.sourceforge.net/DTD/sodipodi-0.dtd"
   xmlns="http://www.w3.org/2000/svg"
   xmlns:svg="http://www.w3.org/2000/svg">
  <defs
     id="defs6">
    <linearGradient
       x1="0"
       y1="0"
       x2="1"
       y2="0"
       gradientUnits="userSpaceOnUse"
       gradientTransform="matrix(2e-8,500,500,-2e-8,250,0)"
       spreadMethod="pad"
       id="linearGradient20">
      <stop
         style="stop-opacity:1;stop-color:#dedede"
         offset="0"
         id="stop14" />
      <stop
         style="stop-opacity:1;stop-color:#dedede"
         offset="0.00537634"
         id="stop16" />
      <stop
         style="stop-opacity:1;stop-color:#ffffff"
         offset="1"
         id="stop18" />
    </linearGradient>
  </defs>
  <sodipodi:namedview
     id="namedview4"
     pagecolor="#ffffff"
     bordercolor="#000000"
     borderopacity="0.25"
     inkscape:showpageshadow="2"
     inkscape:pageopacity="0.0"
     inkscape:pagecheckerboard="0"
     inkscape:deskcolor="#d1d1d1"
     showgrid="false"
     inkscape:zoom="1.0012632"
     inkscape:cx="250.68334"
     inkscape:cy="262.16883"
     inkscape:window-width="1920"
     inkscape:window-height="1123"
     inkscape:window-x="0"
     inkscape:window-y="0"
     inkscape:window-maximized="1"
     inkscape:current-layer="g10">
    <inkscape:page
       x="0"
       y="0"
       id="page8"
       width="322.38"
       height="248.16266" />
  </sodipodi:namedview>
  <g
     id="g10"
     inkscape:groupmode="layer"
     inkscape:label="Page 1"
     transform="matrix(1.3333333,0,0,-1.3333333,-172.144,535.76132)">
    <path
       d="m 228.731,375.742 c 0,-2.443 -1.98,-4.423 -4.423,-4.423 -2.443,0 -4.423,1.98 -4.423,4.423 0,2.443 1.98,4.424 4.423,4.424 2.443,0 4.423,-1.981 4.423,-4.424 z m 19.955,21.079 c 14.405,0 28.016,-6.664 36.944,-17.732 -0.883,-1.229 -1.41,-2.732 -1.41,-4.361 0,-4.134 3.352,-7.485 7.486,-7.485 4.133,0 7.485,3.351 7.485,7.485 0,4.134 -3.352,7.485 -7.485,7.485 -0.674,0 -1.324,-0.097 -1.945,-0.264 -9.864,12.402 -25.029,19.872 -41.075,19.872 -13.09,0 -25.496,-4.805 -35.15,-13.551 -4.562,2.229 -9.605,3.42 -14.757,3.42 -16.994,0 -31.314,-12.822 -33.351,-29.501 -20.993,-6.369 -36.32,-25.896 -36.32,-48.942 0,-28.197 22.941,-51.138 51.139,-51.138 h 48.48 c 6.395,0 11.597,5.202 11.597,11.596 v 20.781 c 0,1.381 -1.119,2.5 -2.5,2.5 h -9.733 l 9.885,9.884 3.846,-3.846 c 0.976,-0.977 2.56,-0.977 3.535,0 0.977,0.976 0.977,2.559 0,3.535 l -5.614,5.614 c -0.975,0.977 -2.559,0.977 -3.535,0 l -15.92,-15.919 c -0.715,-0.715 -0.929,-1.79 -0.542,-2.724 0.387,-0.935 1.298,-1.544 2.31,-1.544 h 13.268 v -18.281 c 0,-3.637 -2.96,-6.596 -6.597,-6.596 h -48.48 c -25.441,0 -46.139,20.697 -46.139,46.138 0,25.441 20.698,46.139 46.139,46.139 13.801,0 26.556,-6.034 35.263,-16.395 -0.981,-1.266 -1.57,-2.851 -1.57,-4.576 0,-4.134 3.351,-7.485 7.485,-7.485 4.134,0 7.485,3.351 7.485,7.485 0,4.134 -3.351,7.485 -7.485,7.485 -0.57,0 -1.122,-0.069 -1.656,-0.19 -9.657,11.799 -23.997,18.676 -39.522,18.676 -3.266,0 -6.456,-0.32 -9.553,-0.908 2.538,13.258 14.271,23.212 28.085,23.212 6.295,0 12.403,-2.083 17.372,-5.885 -0.915,-1.472 -1.452,-3.203 -1.452,-5.063 0,-5.307 4.302,-9.609 9.609,-9.609 5.307,0 9.609,4.302 9.609,9.609 0,5.307 -4.302,9.61 -9.609,9.61 -1.609,0 -3.122,-0.401 -4.455,-1.1 -0.581,0.468 -1.174,0.918 -1.782,1.344 8.553,7.254 19.301,11.225 30.615,11.225"
       style="fill:#00ffff;fill-opacity:1;fill-rule:nonzero;stroke:none;stroke-width:0.1"
       id="path34" />
    <path
       d="m 275.507,337.955 c -2.443,0 -4.424,1.98 -4.424,4.423 0,2.443 1.981,4.424 4.424,4.424 2.443,0 4.423,-1.981 4.423,-4.424 0,-2.443 -1.98,-4.423 -4.423,-4.423 z m 67.766,-2.353 c -3.947,16.718 -19.138,28.784 -36.393,28.784 -10.9,0 -21.14,-4.705 -28.261,-12.924 -0.977,0.335 -2.021,0.526 -3.112,0.526 -5.307,0 -9.61,-4.303 -9.61,-9.61 0,-5.307 4.303,-9.609 9.61,-9.609 5.307,0 9.609,4.302 9.609,9.609 0,2.394 -0.881,4.578 -2.329,6.261 6.151,6.843 14.849,10.747 24.093,10.747 14.183,0 26.761,-9.405 30.932,-22.735 -1.418,0.164 -2.858,0.257 -4.32,0.257 -3.19,0 -6.367,-0.424 -9.442,-1.224 -1.373,1.668 -3.452,2.731 -5.781,2.731 -4.133,0 -7.485,-3.351 -7.485,-7.485 0,-4.134 3.352,-7.485 7.485,-7.485 4.134,0 7.485,3.351 7.485,7.485 0,0.018 -0.002,0.035 -0.002,0.053 2.507,0.614 5.092,0.925 7.74,0.925 17.865,0 32.401,-14.535 32.401,-32.4 0,-17.865 -14.536,-32.399 -32.401,-32.399 h -62.219 c -6.394,0 -11.597,-5.203 -11.597,-11.598 v -20.78 c 0,-1.381 1.119,-2.5 2.5,-2.5 h 9.732 l -10.495,-10.496 -6.469,6.468 c -0.976,0.977 -2.558,0.977 -3.535,0 -0.976,-0.976 -0.976,-2.558 0,-3.535 l 8.237,-8.236 c 0.468,-0.469 1.104,-0.733 1.767,-0.733 0.663,0 1.299,0.264 1.768,0.733 l 16.53,16.531 c 0.715,0.715 0.929,1.79 0.542,2.725 -0.387,0.933 -1.299,1.543 -2.31,1.543 h -13.267 v 18.28 c 0,3.638 2.96,6.598 6.597,6.598 h 62.219 c 20.623,0 37.401,16.777 37.401,37.399 0,17.239 -11.727,31.783 -27.62,36.094"
       style="fill:#ff00ff;fill-opacity:1;fill-rule:nonzero;stroke:none;stroke-width:0.1"
       id="path36" />
  </g>
</svg>
