<!-- Generated by IcoMoon.io -->
<svg version="1.1" xmlns="http://www.w3.org/2000/svg" width="32" height="32" viewBox="0 0 32 32">
<title>keyboard-shortcuts</title>
<path d="M4.969 16c-1.664 0-3 1.336-3 3v8c0 1.664 1.336 3 3 3h18.023c1.664 0 3-1.336 3-3v-8c0-1.664-1.336-3-3-3zM5.094 18c6.375 0.539 12.234 0.461 17.773 0 0.602-0.047 1.125 0.523 1.125 1.125v5.75c0 0.602-0.523 1.055-1.125 1.125-6.008 0.68-11.93 0.656-17.773 0-0.602-0.070-1.125-0.523-1.125-1.125v-5.75c0-0.602 0.523-1.172 1.125-1.125zM20.984 0c-1.664 0-3 1.336-3 3v8c0 1.664 1.336 3 3 3h8.008c1.664 0 3.008-1.336 3.008-3v-8c0-1.664-1.344-3-3.008-3zM21.109 2c2.586 0.25 5.18 0.25 7.766 0 0.602-0.055 1.125 0.523 1.125 1.125v5.75c0 0.602-0.523 1.055-1.125 1.125-2.516 0.305-5.086 0.359-7.766 0-0.594-0.078-1.125-0.523-1.125-1.125v-5.75c0-0.602 0.523-1.18 1.125-1.125zM4.969 2c-1.664 0-3 1.336-3 3v6c0 1.664 1.336 3 3 3h8.008c1.664 0 3.008-1.336 3.008-3v-6c0-1.664-1.344-3-3.008-3zM5.094 4c3.383 0.398 5.695 0.258 7.758 0 0.602-0.078 1.125 0.523 1.125 1.125v5.75c0 0.602-0.523 1.047-1.125 1.125-2.57 0.336-5.18 0.336-7.758 0-0.602-0.078-1.125-0.523-1.125-1.125v-5.75c0-0.602 0.523-1.195 1.125-1.125z"></path>
</svg>
