<!-- Generated by IcoMoon.io -->
<svg version="1.1" xmlns="http://www.w3.org/2000/svg" width="32" height="32" viewBox="0 0 32 32">
<title>open-book</title>
<path d="M6 2c-3.289 0-6 2.711-6 6v14c0 3.289 2.711 6 6 6h6c1.125 0 2 0.875 2 2 0 1.102 0.898 2 2 2s2-0.898 2-2c0-3.289-2.711-6-6-6h-6c-1.125 0-2-0.875-2-2v-14c0-1.125 0.875-2 2-2h6c1.125 0 2 0.875 2 2 0 1.102 0.898 2 2 2s2-0.898 2-2c0-3.289-2.711-6-6-6z"></path>
<path d="M14 8v20h4v-20z"></path>
<path d="M20 2c-3.289 0-6 2.711-6 6 0 1.102 0.898 2 2 2s2-0.898 2-2c0-1.125 0.875-2 2-2h6c1.125 0 2 0.875 2 2v14c0 1.125-0.875 2-2 2h-6c-3.289 0-6 2.711-6 6 0 1.102 0.898 2 2 2s2-0.898 2-2c0-1.125 0.875-2 2-2h6c3.289 0 6-2.711 6-6v-14c0-3.289-2.711-6-6-6z"></path>
<path d="M6 8h6v2h-6z"></path>
<path d="M6 12h6v2h-6z"></path>
<path d="M6 16h6v2h-6z"></path>
<path d="M20 8h6v2h-6z"></path>
<path d="M20 12h6v2h-6z"></path>
<path d="M20 16h4v2h-4z"></path>
</svg>
