<?xml version="1.0" encoding="UTF-8" standalone="no"?>
<!-- Created with Inkscape (http://www.inkscape.org/) -->

<svg
   width="63.595287mm"
   height="67.388023mm"
   viewBox="0 0 63.595287 67.388024"
   version="1.1"
   id="svg5"
   sodipodi:docname="matrix.svg"
   inkscape:version="1.2.2 (b0a8486541, 2022-12-01)"
   xmlns:inkscape="http://www.inkscape.org/namespaces/inkscape"
   xmlns:sodipodi="http://sodipodi.sourceforge.net/DTD/sodipodi-0.dtd"
   xmlns="http://www.w3.org/2000/svg"
   xmlns:svg="http://www.w3.org/2000/svg">
  <sodipodi:namedview
     id="namedview7"
     pagecolor="#ffffff"
     bordercolor="#000000"
     borderopacity="0.25"
     inkscape:showpageshadow="2"
     inkscape:pageopacity="0.0"
     inkscape:pagecheckerboard="0"
     inkscape:deskcolor="#d1d1d1"
     inkscape:document-units="mm"
     showgrid="false"
     inkscape:zoom="3.3638608"
     inkscape:cx="55.293608"
     inkscape:cy="172.27229"
     inkscape:window-width="1920"
     inkscape:window-height="1123"
     inkscape:window-x="0"
     inkscape:window-y="0"
     inkscape:window-maximized="1"
     inkscape:current-layer="layer1"
     showguides="true" />
  <defs
     id="defs2" />
  <g
     inkscape:label="Layer 1"
     inkscape:groupmode="layer"
     id="layer1"
     transform="translate(-25.140757,-96)">
    <text
       xml:space="preserve"
       style="font-size:3.175px;fill:#000000;stroke-width:0.264583"
       x="38.045506"
       y="118.30152"
       id="text113"><tspan
         sodipodi:role="line"
         id="tspan111"
         style="stroke-width:0.264583"
         x="38.045506"
         y="118.30152" /></text>
    <g
       aria-label="1  0  0 0  1  0 0  0  1"
       id="text117"
       style="font-size:14.1111px;fill:#e6e6e6;stroke-width:0.264583">
      <path
         d="m 36.049553,109.11572 h 2.273762 v -7.84792 l -2.473577,0.49609 v -1.2678 L 38.309534,100 h 1.391818 v 9.11572 h 2.273761 v 1.17133 h -5.92556 z"
         id="path6037"
         style="fill:#e6e6e6" />
      <path
         d="m 56.73389,100.9164 q -1.074869,0 -1.619194,1.06108 -0.537434,1.0542 -0.537434,3.17638 0,2.11529 0.537434,3.17638 0.544325,1.05419 1.619194,1.05419 1.081759,0 1.619193,-1.05419 0.544325,-1.06109 0.544325,-3.17638 0,-2.12218 -0.544325,-3.17638 -0.537434,-1.06108 -1.619193,-1.06108 z m 0,-1.102434 q 1.729436,0 2.638941,1.371144 0.916394,1.36426 0.916394,3.96875 0,2.5976 -0.916394,3.96875 -0.909505,1.36425 -2.638941,1.36425 -1.729437,0 -2.645832,-1.36425 -0.909504,-1.37115 -0.909504,-3.96875 0,-2.60449 0.909504,-3.96875 0.916395,-1.371144 2.645832,-1.371144 z"
         id="path6039"
         style="fill:#e6e6e6" />
      <path
         d="m 74.682822,100.9164 q -1.074869,0 -1.619193,1.06108 -0.537435,1.0542 -0.537435,3.17638 0,2.11529 0.537435,3.17638 0.544324,1.05419 1.619193,1.05419 1.081759,0 1.619194,-1.05419 0.544325,-1.06109 0.544325,-3.17638 0,-2.12218 -0.544325,-3.17638 -0.537435,-1.06108 -1.619194,-1.06108 z m 0,-1.102434 q 1.729437,0 2.638941,1.371144 0.916395,1.36426 0.916395,3.96875 0,2.5976 -0.916395,3.96875 -0.909504,1.36425 -2.638941,1.36425 -1.729436,0 -2.645831,-1.36425 -0.909505,-1.37115 -0.909505,-3.96875 0,-2.60449 0.909505,-3.96875 0.916395,-1.371144 2.645831,-1.371144 z"
         id="path6041"
         style="fill:#e6e6e6" />
      <path
         d="m 38.784957,118.55527 q -1.074869,0 -1.619194,1.06109 -0.537434,1.0542 -0.537434,3.17638 0,2.11528 0.537434,3.17637 0.544325,1.0542 1.619194,1.0542 1.081759,0 1.619194,-1.0542 0.544324,-1.06109 0.544324,-3.17637 0,-2.12218 -0.544324,-3.17638 -0.537435,-1.06109 -1.619194,-1.06109 z m 0,-1.10243 q 1.729437,0 2.638941,1.37115 0.916395,1.36426 0.916395,3.96875 0,2.5976 -0.916395,3.96874 -0.909504,1.36426 -2.638941,1.36426 -1.729437,0 -2.645831,-1.36426 -0.909505,-1.37114 -0.909505,-3.96874 0,-2.60449 0.909505,-3.96875 0.916394,-1.37115 2.645831,-1.37115 z"
         id="path6043"
         style="fill:#e6e6e6" />
      <path
         d="m 53.998486,126.75459 h 2.273761 v -7.84792 l -2.473576,0.49609 v -1.26779 l 2.459796,-0.49609 h 1.391817 v 9.11571 h 2.273762 v 1.17133 h -5.92556 z"
         id="path6045"
         style="fill:#e6e6e6" />
      <path
         d="m 74.682822,118.55527 q -1.074869,0 -1.619193,1.06109 -0.537435,1.0542 -0.537435,3.17638 0,2.11528 0.537435,3.17637 0.544324,1.0542 1.619193,1.0542 1.081759,0 1.619194,-1.0542 0.544325,-1.06109 0.544325,-3.17637 0,-2.12218 -0.544325,-3.17638 -0.537435,-1.06109 -1.619194,-1.06109 z m 0,-1.10243 q 1.729437,0 2.638941,1.37115 0.916395,1.36426 0.916395,3.96875 0,2.5976 -0.916395,3.96874 -0.909504,1.36426 -2.638941,1.36426 -1.729436,0 -2.645831,-1.36426 -0.909505,-1.37114 -0.909505,-3.96874 0,-2.60449 0.909505,-3.96875 0.916395,-1.37115 2.645831,-1.37115 z"
         id="path6047"
         style="fill:#e6e6e6" />
      <path
         d="m 38.784957,136.19415 q -1.074869,0 -1.619194,1.06108 -0.537434,1.0542 -0.537434,3.17638 0,2.11529 0.537434,3.17638 0.544325,1.05419 1.619194,1.05419 1.081759,0 1.619194,-1.05419 0.544324,-1.06109 0.544324,-3.17638 0,-2.12218 -0.544324,-3.17638 -0.537435,-1.06108 -1.619194,-1.06108 z m 0,-1.10243 q 1.729437,0 2.638941,1.37114 0.916395,1.36426 0.916395,3.96875 0,2.5976 -0.916395,3.96875 -0.909504,1.36425 -2.638941,1.36425 -1.729437,0 -2.645831,-1.36425 -0.909505,-1.37115 -0.909505,-3.96875 0,-2.60449 0.909505,-3.96875 0.916394,-1.37114 2.645831,-1.37114 z"
         id="path6049"
         style="fill:#e6e6e6" />
      <path
         d="m 56.73389,136.19415 q -1.074869,0 -1.619194,1.06108 -0.537434,1.0542 -0.537434,3.17638 0,2.11529 0.537434,3.17638 0.544325,1.05419 1.619194,1.05419 1.081759,0 1.619193,-1.05419 0.544325,-1.06109 0.544325,-3.17638 0,-2.12218 -0.544325,-3.17638 -0.537434,-1.06108 -1.619193,-1.06108 z m 0,-1.10243 q 1.729436,0 2.638941,1.37114 0.916394,1.36426 0.916394,3.96875 0,2.5976 -0.916394,3.96875 -0.909505,1.36425 -2.638941,1.36425 -1.729437,0 -2.645832,-1.36425 -0.909504,-1.37115 -0.909504,-3.96875 0,-2.60449 0.909504,-3.96875 0.916395,-1.37114 2.645832,-1.37114 z"
         id="path6051"
         style="fill:#e6e6e6" />
      <path
         d="m 71.947419,144.39347 h 2.273761 v -7.84792 l -2.473577,0.49609 v -1.26779 l 2.459796,-0.4961 h 1.391818 v 9.11572 h 2.273761 v 1.17133 h -5.925559 z"
         id="path6053"
         style="fill:#e6e6e6" />
    </g>
    <path
       style="fill:#e6e6e6;stroke-width:0.264583"
       d="M 30.941391,97.944717 H 27.507009"
       id="path438" />
    <path
       style="fill:#e6e6e6;stroke-width:0.264583"
       d="m 30.432594,97.829805 h -4.66459"
       id="path440" />
    <path
       style="color:#000000;fill:#e6e6e6;-inkscape-stroke:none"
       d="m 28.287109,96 v 54.55078 h 3.160157 v -0.5 H 28.787109 V 96.5 h 2.626953 V 96 Z"
       id="path1273" />
    <path
       style="color:#000000;fill:#e6e6e6;-inkscape-stroke:none"
       d="m 81.902344,96 v 0.5 h 2.626953 v 53.55078 h -2.660156 v 0.5 h 3.160156 V 96 Z"
       id="path1273-6" />
    <path
       style="color:#000000;fill:#e6e6e6;-inkscape-stroke:none"
       d="m 34.248047,133.15625 c -1.44834,0 -2.621094,1.17275 -2.621094,2.62109 v 9.38086 c 0,1.44834 1.172754,2.6211 2.621094,2.6211 h 44.611328 c 1.44834,0 2.621094,-1.17276 2.621094,-2.6211 v -9.38086 c 0,-1.44834 -1.172754,-2.62109 -2.621094,-2.62109 z m 0,0.47461 h 44.611328 c 1.192819,0 2.144531,0.95366 2.144531,2.14648 v 9.38086 c 0,1.19282 -0.951712,2.14649 -2.144531,2.14649 H 34.248047 c -1.19282,0 -2.144531,-0.95367 -2.144531,-2.14649 v -9.38086 c 0,-1.19282 0.951711,-2.14648 2.144531,-2.14648 z"
       id="rect1344" />
    <text
       xml:space="preserve"
       style="font-size:6.35px;font-family:'Fira Code Light';-inkscape-font-specification:'Fira Code Light, ';fill:#e6e6e6;stroke-width:0.499999"
       x="24.756582"
       y="160.13156"
       id="text1335"><tspan
         sodipodi:role="line"
         id="tspan1333"
         style="font-weight:normal;stroke-width:0.5"
         x="24.756582"
         y="160.13156">validate([0,0,1])</tspan></text>
    <g
       id="path2444"
       style="fill:#e6e6e6">
      <path
         style="color:#000000;fill:#e6e6e6;stroke-width:0.5;-inkscape-stroke:none"
         d="m 56.955341,147.56522 v 4.47719"
         id="path2955" />
      <path
         style="color:#000000;fill:#e6e6e6;-inkscape-stroke:none"
         d="m 56.705078,147.56445 v 4.47852 h 0.5 v -4.47852 z"
         id="path2957" />
      <g
         id="g2947"
         style="fill:#e6e6e6">
        <path
           style="color:#000000;fill:#e6e6e6;-inkscape-stroke:none"
           d="m 55.632812,150.49023 -0.353515,0.35352 1.675781,1.67773 1.677734,-1.67773 -0.353515,-0.35352 -1.322266,1.32227 z"
           id="path2949" />
      </g>
    </g>
  </g>
</svg>
