<svg aria-hidden="true" style="position: absolute; width: 0; height: 0; overflow: hidden;" version="1.1" xmlns="http://www.w3.org/2000/svg" xmlns:xlink="http://www.w3.org/1999/xlink">
<defs>
<symbol id="keyboard-shortcuts" viewBox="0 0 32 32">
<path d="M4.969 16c-1.664 0-3 1.336-3 3v8c0 1.664 1.336 3 3 3h18.023c1.664 0 3-1.336 3-3v-8c0-1.664-1.336-3-3-3zM5.094 18c6.375 0.539 12.234 0.461 17.773 0 0.602-0.047 1.125 0.523 1.125 1.125v5.75c0 0.602-0.523 1.055-1.125 1.125-6.008 0.68-11.93 0.656-17.773 0-0.602-0.070-1.125-0.523-1.125-1.125v-5.75c0-0.602 0.523-1.172 1.125-1.125zM20.984 0c-1.664 0-3 1.336-3 3v8c0 1.664 1.336 3 3 3h8.008c1.664 0 3.008-1.336 3.008-3v-8c0-1.664-1.344-3-3.008-3zM21.109 2c2.586 0.25 5.18 0.25 7.766 0 0.602-0.055 1.125 0.523 1.125 1.125v5.75c0 0.602-0.523 1.055-1.125 1.125-2.516 0.305-5.086 0.359-7.766 0-0.594-0.078-1.125-0.523-1.125-1.125v-5.75c0-0.602 0.523-1.18 1.125-1.125zM4.969 2c-1.664 0-3 1.336-3 3v6c0 1.664 1.336 3 3 3h8.008c1.664 0 3.008-1.336 3.008-3v-6c0-1.664-1.344-3-3.008-3zM5.094 4c3.383 0.398 5.695 0.258 7.758 0 0.602-0.078 1.125 0.523 1.125 1.125v5.75c0 0.602-0.523 1.047-1.125 1.125-2.57 0.336-5.18 0.336-7.758 0-0.602-0.078-1.125-0.523-1.125-1.125v-5.75c0-0.602 0.523-1.195 1.125-1.125z"></path>
</symbol>
<symbol id="about" viewBox="0 0 32 32">
<path d="M16 0c-8.844 0-16 7.156-16 16s7.156 16 16 16 16-7.156 16-16-7.156-16-16-16zM16 7.75c1.242 0 2.25 1.008 2.25 2.25s-1.008 2.25-2.25 2.25-2.25-1.008-2.25-2.25 1.008-2.25 2.25-2.25zM12.953 14h5.047v8h1c0.555 0 1 0.445 1 1s-0.445 1-1 1h-5v-8h-1c-0.555 0-1-0.445-1-1 0-0.539 0.422-0.977 0.953-1z"></path>
</symbol>
<symbol id="menu" viewBox="0 0 32 32">
<path d="M4 6h24v4h-24z"></path>
<path d="M4 14h24v4h-24z"></path>
<path d="M4 22h24v4h-24z"></path>
</symbol>
<symbol id="window-close" viewBox="0 0 32 32">
<path d="M8 8h2.063c0.508 0.023 1.023 0.258 1.375 0.625l4.563 4.563 4.625-4.563c0.531-0.461 0.891-0.609 1.375-0.625h2v2c0 0.57-0.070 1.102-0.5 1.5l-4.563 4.563 4.5 4.5c0.375 0.375 0.563 0.906 0.563 1.438v2h-2c-0.531 0-1.063-0.188-1.438-0.563l-4.563-4.563-4.563 4.563c-0.375 0.375-0.906 0.563-1.438 0.563h-2v-2c0-0.531 0.188-1.063 0.563-1.438l4.563-4.5-4.563-4.563c-0.422-0.391-0.609-0.938-0.563-1.5z"></path>
</symbol>
<symbol id="open-book" viewBox="0 0 32 32">
<path d="M6 2c-3.289 0-6 2.711-6 6v14c0 3.289 2.711 6 6 6h6c1.125 0 2 0.875 2 2 0 1.102 0.898 2 2 2s2-0.898 2-2c0-3.289-2.711-6-6-6h-6c-1.125 0-2-0.875-2-2v-14c0-1.125 0.875-2 2-2h6c1.125 0 2 0.875 2 2 0 1.102 0.898 2 2 2s2-0.898 2-2c0-3.289-2.711-6-6-6z"></path>
<path d="M14 8v20h4v-20z"></path>
<path d="M20 2c-3.289 0-6 2.711-6 6 0 1.102 0.898 2 2 2s2-0.898 2-2c0-1.125 0.875-2 2-2h6c1.125 0 2 0.875 2 2v14c0 1.125-0.875 2-2 2h-6c-3.289 0-6 2.711-6 6 0 1.102 0.898 2 2 2s2-0.898 2-2c0-1.125 0.875-2 2-2h6c3.289 0 6-2.711 6-6v-14c0-3.289-2.711-6-6-6z"></path>
<path d="M6 8h6v2h-6z"></path>
<path d="M6 12h6v2h-6z"></path>
<path d="M6 16h6v2h-6z"></path>
<path d="M20 8h6v2h-6z"></path>
<path d="M20 12h6v2h-6z"></path>
<path d="M20 16h4v2h-4z"></path>
</symbol>
<symbol id="github" viewBox="0 0 32 32">
<path d="M16 0.395c-8.836 0-16 7.163-16 16 0 7.069 4.585 13.067 10.942 15.182 0.8 0.148 1.094-0.347 1.094-0.77 0-0.381-0.015-1.642-0.022-2.979-4.452 0.968-5.391-1.888-5.391-1.888-0.728-1.849-1.776-2.341-1.776-2.341-1.452-0.993 0.11-0.973 0.11-0.973 1.606 0.113 2.452 1.649 2.452 1.649 1.427 2.446 3.743 1.739 4.656 1.33 0.143-1.034 0.558-1.74 1.016-2.14-3.554-0.404-7.29-1.777-7.29-7.907 0-1.747 0.625-3.174 1.649-4.295-0.166-0.403-0.714-2.030 0.155-4.234 0 0 1.344-0.43 4.401 1.64 1.276-0.355 2.645-0.532 4.005-0.539 1.359 0.006 2.729 0.184 4.008 0.539 3.054-2.070 4.395-1.64 4.395-1.64 0.871 2.204 0.323 3.831 0.157 4.234 1.026 1.12 1.647 2.548 1.647 4.295 0 6.145-3.743 7.498-7.306 7.895 0.574 0.497 1.085 1.47 1.085 2.963 0 2.141-0.019 3.864-0.019 4.391 0 0.426 0.288 0.925 1.099 0.768 6.354-2.118 10.933-8.113 10.933-15.18 0-8.837-7.164-16-16-16z"></path>
</symbol>
</defs>
</svg>
